<?xml version="1.0" encoding="UTF-8"?>
<svg width="752pt" height="752pt" version="1.1" viewBox="0 0 752 752" xmlns="http://www.w3.org/2000/svg">
 <g>
  <path d="m444.93 518.07v-14.207c0-5.2617-4.2109-9.4727-12.102-13.68 35.781-25.258 58.934-66.301 58.934-112.61 0-76.301-62.09-138.39-138.39-138.39s-138.39 62.09-138.39 138.39c0 46.832 23.68 88.402 59.461 113.66-7.3672 3.6836-11.051 7.8945-11.051 13.156v13.68c-9.9961 4.7344-15.262 9.9961-15.262 15.785v25.258c0 19.469 53.145 29.469 105.77 29.469 52.621 0 106.3-9.9961 106.3-29.465v-25.258c0-6.3164-5.2656-11.578-15.262-15.789zm-148.91 19.473v-13.68c16.312 3.6836 37.359 5.2617 57.883 5.2617 21.047 0 42.098-2.1055 58.934-5.7891v13.68c-13.68 3.1562-33.676 5.7891-58.934 5.7891-24.734 0.52344-44.203-2.1055-57.883-5.2617zm120.5-1.0547v-13.68c2.6328-0.52734 4.7344-1.0508 6.8398-2.1055v13.68c-2.1055 1.0547-4.2109 1.5781-6.8398 2.1055zm-124.18-13.68v13.68c-2.6328-0.52734-4.7344-1.5781-6.8398-2.1055v-13.68c2.1055 1.0508 4.7344 1.5781 6.8398 2.1055zm134.71 10.523v-13.68c1.5781-0.52734 2.6328-1.0508 4.2109-1.5781v13.156c-1.0547 0.52344-2.6328 1.0469-4.2109 2.1016zm-145.23-13.68v13.68c-1.5781-0.52734-3.1562-1.0508-4.2109-1.5781v-13.684c1.5781 0.52734 2.6328 1.0547 4.2109 1.582zm153.12 9.4688v-12.629c1.0508-0.52734 1.5781-1.0508 2.6328-1.5781v10.523c-0.003906 1.0547-1.0547 2.1055-2.6328 3.6836zm-161.02-12.629v13.156c-2.1055-1.5781-3.1562-2.6328-3.1562-4.2109v-10.523c1.0508 0.52734 2.1055 1.0547 3.1562 1.5781zm-6.3125 35.258v15.785c-1.5781-0.52734-3.1562-1.5781-4.2109-2.1055v-15.785c1.0508 1.0508 2.6328 1.5781 4.2109 2.1055zm3.6836 1.0508c2.1055 0.52734 4.2109 1.5781 6.8398 2.1055v15.785c-2.6328-0.52734-4.7344-1.5781-6.8398-2.1055zm166.28 0v15.785c-2.1055 0.52734-4.2109 1.5781-6.8398 2.1055v-15.785c2.1055-0.52734 4.7344-1.0547 6.8398-2.1055zm3.6836-1.0508c1.5781-0.52734 2.6328-1.0508 4.2109-1.5781v15.262c-1.0508 0.52734-2.6328 1.5781-4.2109 2.1055zm-211.53-174.18c0-68.406 55.777-123.66 123.66-123.66s123.66 55.777 123.66 123.66c0 67.883-55.777 123.66-123.66 123.66s-123.66-55.777-123.66-123.66zm27.359 181.54v-12.629c0.52734 0.52734 1.5781 1.0508 2.6328 1.5781v14.734c-1.5781-1.582-2.6328-2.6328-2.6328-3.6836zm24.734 12.629v-15.785c19.996 4.7344 46.305 7.3672 72.617 7.3672 26.309 0 52.621-2.6328 72.617-7.3672v15.785c-16.312 4.2109-40.516 7.8945-72.617 7.8945-32.102-0.003906-56.305-3.6875-72.617-7.8945zm166.8-8.9453v-14.734c0.52734-0.52734 1.5781-1.0508 2.1055-1.0508v12.629c0.52734 0.52344-0.52734 1.5742-2.1055 3.1562z"/>
  <path d="m431.78 429.68-1.5781-1.5781c-18.941 17.891-45.781 26.836-71.039 24.73-25.258-2.1055-49.465-15.785-63.672-36.309-14.207-19.996-15.785-47.883-4.7344-68.934 5.2617-10.523 13.68-19.996 23.152-25.785 9.9961-5.7891 21.574-7.8945 32.625-6.8398 11.051 1.5781 21.574 6.8398 29.469 14.734 7.3672 7.3672 11.051 17.891 10.523 28.414-0.52734 9.9961-5.7891 19.996-13.156 26.309-6.8398 5.7891-17.363 7.8945-26.309 4.7344-4.2109-1.0508-8.9453-4.2109-11.578-7.3672-2.6328-3.1562-4.7344-7.3672-5.2617-12.102-1.0508-8.9453 4.7344-18.941 13.156-21.574 8.418-2.6328 20.523 3.1562 21.047 13.156 0.52734 4.7344-1.5781 10.523-5.7891 13.68-4.2109 3.1562-11.051 3.1562-15.785-0.52734l-1.5742 1.582c4.2109 5.7891 13.156 8.418 20.523 4.7344 7.3672-3.1562 12.629-11.051 13.156-18.941 1.0508-8.418-3.6836-17.363-9.9961-22.102-6.8398-5.2617-15.785-7.8945-24.207-6.3125-8.418 1.0508-16.84 6.8398-22.102 13.68-5.2617 6.8398-7.8945 15.262-7.8945 24.207s3.1562 17.363 8.418 24.73c5.7891 6.8398 12.629 12.102 20.523 15.262 16.312 6.3125 35.254 3.1562 48.41-8.418 12.629-11.051 19.996-27.363 19.996-43.676s-6.8398-32.625-18.418-43.148c-11.051-10.523-26.309-17.363-41.043-18.418-15.262-1.0508-30.52 2.1055-43.148 10.523-12.629 8.418-22.102 19.996-27.887 33.676-12.102 26.309-8.418 58.934 8.9453 81.562 17.363 22.625 44.727 35.781 72.09 36.309 27.887 0.52734 55.246-10.523 73.137-29.992z"/>
  <path d="m495.98 429.68c2.1055 14.207 1.0508 16.84-11.578 23.68 14.207-2.1055 16.84-1.0508 23.68 11.578-2.1055-14.207-1.0508-16.84 11.578-23.68-14.211 2.6289-16.84 1.5742-23.68-11.578z"/>
  <path d="m322.33 188.68c-2.6328-10.523-2.1055-12.102 6.8398-18.418-10.523 2.6328-12.102 2.1055-18.418-6.8398 2.6328 10.523 2.1055 12.102-6.8398 18.418 10.527-2.6328 12.105-2.1094 18.418 6.8398z"/>
  <path d="m253.4 255.5c14.734-21.574 19.469-23.152 44.727-16.312-21.574-14.734-23.152-19.469-16.312-44.727-14.734 21.574-19.469 23.152-44.727 16.312 21.574 15.262 23.152 19.996 16.312 44.727z"/>
  <path d="m332.33 221.82c0 3.7773-3.0625 6.8398-6.8438 6.8398-3.7773 0-6.8398-3.0625-6.8398-6.8398 0-3.7773 3.0625-6.8398 6.8398-6.8398 3.7812 0 6.8438 3.0625 6.8438 6.8398"/>
  <path d="m524.39 413.36c0 3.7773-3.0625 6.8398-6.8398 6.8398-3.7773 0-6.8438-3.0625-6.8438-6.8398 0-3.7812 3.0664-6.8438 6.8438-6.8438 3.7773 0 6.8398 3.0625 6.8398 6.8438"/>
  <path d="m537.02 433.36c0 4.2109-6.3164 4.2109-6.3164 0 0-4.207 6.3164-4.207 6.3164 0"/>
 </g>
</svg>
