<?xml version="1.0" encoding="UTF-8"?>
<svg width="752pt" height="752pt" version="1.1" viewBox="0 0 752 752" xmlns="http://www.w3.org/2000/svg">
 <g>
  <path d="m309.37 348.86c14.824-14.824 14.824-38.832 0-53.656-14.824-14.824-38.832-14.824-53.656 0-14.824 14.824-14.824 38.832 0 53.656 14.824 14.777 38.836 14.777 53.656 0z"/>
  <path d="m307.43 406.55 94.859-94.859c-0.47266 0.046875-0.94531 0.1875-1.4219 0.42578-19.891 6.8672-39.828 13.781-59.719 20.648-23.062 11.508-37.555 33.625-36.988 56.641 0.19141 6.3945 1.5664 12.078 3.2695 17.145z"/>
  <path d="m284.46 429.56 13.875-13.875c-0.046875 0-0.14062-0.046875-0.1875-0.14062l-2.4141-2.5117-2.5117 2.5117c-6.5352 6.4414-15.203 10.039-24.438 10.039s-17.809-3.5508-24.293-10.039v9.1406c7.0078 5.1133 15.484 7.8633 24.293 7.8633 5.4961 0.042969 10.75-1 15.676-2.9883z"/>
  <path d="m244.49 433.16v9.1406c5.7305 4.168 12.457 6.8672 19.559 7.625l6.7734-6.7734c-0.66406 0.14062-1.4219 0.14062-2.082 0.14062-9.1914 0-17.809-3.6445-24.25-10.133z"/>
  <path d="m244.49 459.87c1.8945 1.4219 3.8828 2.6992 5.918 3.6953l5.2578-5.2578c-4.1211-1.7539-7.957-4.3086-11.176-7.5312z"/>
  <path d="m376 186.57c-104.47 0-189.43 84.961-189.43 189.43s84.961 189.43 189.43 189.43 189.43-84.961 189.43-189.43-84.961-189.43-189.43-189.43zm-123.93 294.38c-24.059-28.32-38.598-64.977-38.598-104.95 0-89.602 72.883-162.53 162.53-162.53 39.969 0 76.625 14.539 104.95 38.598l-61.801 61.848-36.418 36.418-11.648 11.699-50.961 50.91-54.793 54.793zm123.93 57.59c-39.969 0-76.625-14.539-104.95-38.598l35.328-35.328c1.2773 0.47266 2.6055 0.94531 3.8828 1.3242 3.0312 0.99609 6.1094 1.4688 9.2344 1.7539 0.85156 0.046875 1.7539 0.14062 2.6992 0.14062 4.2148 0 8.4766-0.51953 12.645-1.8945 5.2578-1.5625 10.23-4.2148 14.539-7.957 4.3555 3.6953 9.2812 6.3945 14.445 7.957 8.0508 2.5586 16.766 2.5586 24.77 0 5.1602-1.5625 10.086-4.2148 14.398-7.957 4.3555 3.6953 9.2812 6.3945 14.445 7.957 8.0039 2.5117 16.672 2.5117 24.672 0 2.5117-0.75781 4.9727-1.7539 7.3398-3.0312 2.5586-1.4219 4.832-3.0312 7.1992-4.9258 4.3086 3.6953 9.2812 6.3945 14.398 7.957 8.0508 2.5586 16.766 2.5586 24.816 0 4.1211-1.2773 8.0039-3.2188 11.648-5.8711v-8.9961c-13.309 13.117-34.996 13.07-48.449-0.28516l-2.4141-2.4141-2.5117 2.4141c-2.8906 3.0312-6.3945 5.3047-9.9453 6.9141-12.785 5.7773-28.273 3.4102-38.738-6.9141l-2.5117-2.4141-2.4141 2.4141c-13.543 13.402-35.328 13.402-48.828 0l-2.3672-2.4141-2.5117 2.4141c-4.832 4.832-10.75 7.957-16.953 9.2812-5.8711 1.2773-12.027 0.99609-17.809-0.80469-0.046875 0-0.1875-0.046874-0.28516-0.14062l8.9492-8.9492c10.039 0.42578 20.363-2.8398 28.605-9.8047l0.14062 0.14062c15.344 12.977 38.125 12.93 53.469-0.14062 13.117 11.176 31.73 12.836 46.504 4.9258 2.5586-1.4219 4.832-3.0312 7.1992-4.9258 14.539 12.359 35.66 13.117 50.863 2.082v-8.9492c-13.309 13.07-34.996 12.977-48.449-0.33203l-2.4141-2.5117-2.5117 2.5117c-2.8906 2.9844-6.3945 5.3047-9.9453 6.8672-12.785 5.8711-28.273 3.5508-38.738-6.8672l-2.5117-2.5117-2.4141 2.5117c-12.645 12.504-32.582 13.309-46.125 2.4141-0.94531-0.75781-1.8008-1.5625-2.6992-2.4141l-2.3672-2.5117-2.5117 2.5117c-5.3047 5.2578-11.84 8.4297-18.613 9.5664l16.906-16.906c1.4688-0.85156 2.8906-1.9414 4.2148-3.0781 3.4102 2.8906 7.1992 5.1602 11.176 6.7266 13.922 5.7305 30.453 3.5039 42.434-6.7266 13.117 11.223 31.73 12.836 46.504 4.832 2.5586-1.4219 4.832-2.8906 7.1992-4.832 14.539 12.312 35.66 13.117 50.863 2.082v-8.9961c-13.309 13.07-34.996 12.977-48.449-0.28516l-2.4141-2.5117-2.5117 2.5117c-2.8906 2.9844-6.3945 5.3984-9.9453 6.9141-12.785 5.7305-28.273 3.5039-38.738-6.9141l-2.5117-2.5117-2.4141 2.5117c-9.3281 9.2344-22.73 12.027-34.523 8.4297-4.4531-1.2773-8.668-3.5039-12.359-6.6758l7.6719-7.6719c4.9258 2.4141 10.23 3.5039 15.629 3.4102 1.8945-0.046874 3.7891-0.28516 5.7305-0.61719h0.14062c4.832-0.94531 9.4727-2.9844 13.641-6.1094 1.4219-0.85156 2.8398-2.082 4.168-3.3633l2.3672-2.4141 2.5117 2.4141c4.3555 4.3555 9.7539 7.3867 15.391 8.8086l-30.785-30.785 34.762-34.855 15.535 3.5039 48.637 10.988c5.2578 1.0898 10.512-0.51953 13.969-4.168 1.9414-1.8945 3.4102-4.4531 4.0273-7.3398 1.8945-8.1445-3.2188-16.148-11.414-18.043l-29.93-6.7266-15.535-3.5039 49.82-49.82c24.059 28.32 38.598 64.977 38.598 104.95-0.035156 89.648-72.969 162.58-162.57 162.58z"/>
 </g>
</svg>
